# xmcd CD database file
#
# Track frame offsets:
#	150
#	19214
#	43919
#	76590
#	93709
#	118244
#	140994
#	164821
#	185949
#	207106
#	233274
#	253231
#	282981
#	302914
#
# Disc length: 4461 seconds
#
# Revision: 1
# Processed by: cddbd v1.5.2PL0 Copyright (c) Steve Scherf et al.
# Submitted via: CDex 1.51
#
DISCID=d5116b0e
DTITLE=Mountain Men - Spring time coming
DYEAR=2010
DGENRE=Blues
TTITLE0=Time is coming
TTITLE1=Blues before my time
TTITLE2=Golden age
TTITLE3=My anger
TTITLE4=Hang me
TTITLE5=I make you lose
TTITLE6=Old home place
TTITLE7=She shinces
TTITLE8=Hellhole
TTITLE9=She loves me so much
TTITLE10=Rabbit
TTITLE11=Les marquises
TTITLE12=Wish I was in heaven sitting down
TTITLE13=Le peintre de nu
EXTD=YEAR: 2010
EXTT0=
EXTT1=
EXTT2=
EXTT3=
EXTT4=
EXTT5=
EXTT6=
EXTT7=
EXTT8=
EXTT9=
EXTT10=
EXTT11=
EXTT12=
EXTT13=
PLAYORDER=
